<svg width="22" height="22" viewBox="0 0 22 22" fill="none" xmlns="http://www.w3.org/2000/svg">
<path fill-rule="evenodd" clip-rule="evenodd" d="M11.0009 0C8.0135 0 7.63858 0.0130625 6.46525 0.0664583C5.29421 0.120083 4.49487 0.305479 3.79546 0.5775C3.07198 0.858458 2.45827 1.23429 1.84685 1.84594C1.23498 2.45735 0.859146 3.07106 0.577271 3.79431C0.304562 4.49396 0.118937 5.29352 0.0662291 6.4641C0.01375 7.63744 0 8.01258 0 11C0 13.9874 0.0132916 14.3612 0.0664584 15.5345C0.120312 16.7056 0.305708 17.5049 0.5775 18.2043C0.858688 18.9278 1.23452 19.5415 1.84617 20.1529C2.45735 20.7648 3.07106 21.1415 3.79408 21.4225C4.49396 21.6945 5.29352 21.8799 6.46433 21.9335C7.63767 21.9869 8.01235 22 10.9995 22C13.9872 22 14.361 21.9869 15.5343 21.9335C16.7053 21.8799 17.5056 21.6945 18.2055 21.4225C18.9287 21.1415 19.5415 20.7648 20.1527 20.1529C20.7646 19.5415 21.1404 18.9278 21.4223 18.2045C21.6927 17.5049 21.8783 16.7053 21.9333 15.5347C21.986 14.3614 21.9998 13.9874 21.9998 11C21.9998 8.01258 21.986 7.63767 21.9333 6.46433C21.8783 5.29329 21.6927 4.49396 21.4223 3.79454C21.1404 3.07106 20.7646 2.45735 20.1527 1.84594C19.5408 1.23406 18.9289 0.858229 18.2048 0.5775C17.5035 0.305479 16.7037 0.120083 15.5327 0.0664583C14.3594 0.0130625 13.9858 0 10.9975 0H11.0009ZM10.634 1.98211H10.6343L11.0009 1.98222C13.9379 1.98222 14.286 1.99276 15.4458 2.04547C16.5183 2.09451 17.1004 2.27372 17.4882 2.42428C18.0015 2.62366 18.3675 2.86199 18.7523 3.24699C19.1373 3.63199 19.3756 3.99866 19.5754 4.51199C19.726 4.89928 19.9054 5.48137 19.9542 6.55387C20.007 7.71345 20.0184 8.06178 20.0184 10.9974C20.0184 13.933 20.007 14.2814 19.9542 15.441C19.9052 16.5135 19.726 17.0955 19.5754 17.4828C19.3761 17.9962 19.1373 18.3617 18.7523 18.7465C18.3673 19.1315 18.0017 19.3698 17.4882 19.5692C17.1009 19.7204 16.5183 19.8992 15.4458 19.9482C14.2863 20.0009 13.9379 20.0124 11.0009 20.0124C8.0637 20.0124 7.7156 20.0009 6.55601 19.9482C5.48351 19.8987 4.90143 19.7195 4.51345 19.5689C4.00012 19.3696 3.63345 19.1312 3.24845 18.7462C2.86345 18.3612 2.62512 17.9955 2.42528 17.4819C2.27472 17.0946 2.09528 16.5125 2.04647 15.44C1.99376 14.2805 1.98322 13.9321 1.98322 10.9947C1.98322 8.0572 1.99376 7.7107 2.04647 6.55112C2.09551 5.47862 2.27472 4.89653 2.42528 4.50878C2.62466 3.99545 2.86345 3.62878 3.24845 3.24378C3.63345 2.85878 4.00012 2.62045 4.51345 2.42062C4.9012 2.26937 5.48351 2.09062 6.55601 2.04135C7.57076 1.99551 7.96401 1.98176 10.0141 1.97947V1.98222C10.2056 1.98192 10.4116 1.98201 10.6339 1.98211H10.6339H10.634ZM15.5526 5.12811C15.5526 4.39913 16.1439 3.80856 16.8726 3.80856V3.80811C17.6014 3.80811 18.1926 4.39936 18.1926 5.12811C18.1926 5.85686 17.6014 6.44811 16.8726 6.44811C16.1439 6.44811 15.5526 5.85686 15.5526 5.12811ZM11.0007 5.35118C7.88115 5.3513 5.35196 7.88056 5.35196 11.0001C5.35196 14.1198 7.88127 16.6479 11.0009 16.6479C14.1206 16.6479 16.649 14.1198 16.649 11.0001C16.649 7.88049 14.1203 5.35118 11.0007 5.35118ZM14.6676 11C14.6676 8.97485 13.0258 7.33333 11.0009 7.33333C8.97575 7.33333 7.33423 8.97485 7.33423 11C7.33423 13.0249 8.97575 14.6667 11.0009 14.6667C13.0258 14.6667 14.6676 13.0249 14.6676 11Z" fill="#a2a0a2"/>
</svg>
