<svg width="24" height="18" viewBox="0 0 24 18" fill="#a2a0a2" xmlns="http://www.w3.org/2000/svg">
<path fill-rule="evenodd" clip-rule="evenodd" d="M16.3562 15.4074C16.9726 16.1788 17.7123 17.0517 17.7123 17.0517C22.2534 16.9096 24 13.9661 24 13.9661C24 7.42974 21.0411 2.1316 21.0411 2.1316C18.0822 -0.0607294 15.2671 0.000168692 15.2671 0.000168692L14.9795 0.324959C18.4726 1.38053 20.0959 2.90298 20.0959 2.90298C17.9589 1.74592 15.863 1.17753 13.911 0.95424C12.4315 0.791845 11.0137 0.832443 9.76027 0.994838C9.65265 0.994838 9.56068 1.01031 9.45703 1.02774C9.44195 1.03028 9.42662 1.03286 9.41096 1.03544C8.69178 1.09634 6.94521 1.36023 4.74658 2.3143C3.9863 2.65939 3.53425 2.90298 3.53425 2.90298C3.53425 2.90298 5.23973 1.29933 8.93836 0.243761L8.73288 0.000168692C8.73288 0.000168692 5.91781 -0.0607294 2.9589 2.1316C2.9589 2.1316 0 7.42974 0 13.9661C0 13.9661 1.72603 16.9096 6.26712 17.0517C6.26712 17.0517 7.0274 16.1382 7.64384 15.3668C5.03425 14.5954 4.04795 12.9715 4.04795 12.9715C4.04795 12.9715 4.25342 13.1136 4.62329 13.3166C4.64384 13.3369 4.66438 13.3572 4.70548 13.3775C4.7363 13.3978 4.76712 13.413 4.79795 13.4282C4.82877 13.4434 4.85959 13.4587 4.89041 13.479C5.40411 13.7631 5.91781 13.9864 6.39041 14.1691C7.23288 14.4939 8.23973 14.8187 9.41096 15.042C10.9521 15.3262 12.7603 15.4277 14.7329 15.0623C15.6986 14.8999 16.6849 14.6157 17.7123 14.1894C18.4315 13.9255 19.2329 13.5399 20.0753 12.9918C20.0753 12.9918 19.0479 14.6563 16.3562 15.4074ZM16.1772 7.93977C15.0152 7.93977 14.0978 8.98478 14.0978 10.2597C14.0978 11.5346 15.0355 12.5796 16.1772 12.5796C17.3392 12.5796 18.2565 11.5346 18.2565 10.2597C18.2565 8.98478 17.3392 7.93977 16.1772 7.93977ZM8.73624 7.9398C7.57424 7.9398 6.65687 8.98481 6.65687 10.2597C6.65687 11.5346 7.59463 12.5797 8.73624 12.5797C9.89825 12.5797 10.8156 11.5346 10.8156 10.2597C10.836 8.98481 9.89825 7.9398 8.73624 7.9398Z" fill="#ff4655"/>
</svg>
