<svg width="24" height="18" viewBox="0 0 24 18" fill="none" xmlns="http://www.w3.org/2000/svg">
<path fill-rule="evenodd" clip-rule="evenodd" d="M21.3765 0.514996C22.4092 0.79837 23.2225 1.63333 23.4985 2.69365C24 4.61535 24 8.62501 24 8.62501C24 8.62501 24 12.6345 23.4985 14.5564C23.2225 15.6167 22.4092 16.4516 21.3765 16.7352C19.5051 17.25 12 17.25 12 17.25C12 17.25 4.49496 17.25 2.62337 16.7352C1.59068 16.4516 0.77741 15.6167 0.50141 14.5564C0 12.6345 0 8.62501 0 8.62501C0 8.62501 0 4.61535 0.50141 2.69365C0.77741 1.63333 1.59068 0.79837 2.62337 0.514996C4.49496 0 12 0 12 0C12 0 19.5051 0 21.3765 0.514996ZM9.75006 5.25002V12.75L15.7501 9.00017L9.75006 5.25002Z" fill="#a2a0a2"/>
</svg>
